<svg width="1511" height="1011" xmlns="http://www.w3.org/2000/svg" xmlns:xlink="http://www.w3.org/1999/xlink" fill="#ffffff"><defs><style>
  text {
    fill: #212529;
    font-family: Helvetica Neue, Helvetica, Arial, sans-serif;
    font-size: 16px;
  }

  marker, text {
    fill-opacity: 1;
  }

  * {
    overflow: visible;
  }
</style></defs><svg x="625" y="15" width="160" height="40" class="Theia Fixture" fill="#ffffff"><g><rect width="100%" height="40" stroke="none" fill="white" class="sc-fqkvVR eDtKfR"></rect><rect y="40" width="100%" height="0" stroke="none" fill="white" class="sc-fqkvVR eDtKfR"></rect><svg height="40"><text x="50%" y="50%" dominant-baseline="middle" text-anchor="middle" font-weight="bold" pointer-events="none">Theia Fixture</text></svg><rect width="100%" height="100%" stroke="black" fill="none" class="sc-fqkvVR jAaomD"></rect></g></svg><svg x="15" y="215" width="230" height="190" class="LandingPage" fill="#ffffff"><g><rect width="100%" height="40" stroke="none" fill="white" class="sc-fqkvVR eDtKfR"></rect><rect y="40" width="100%" height="150" stroke="none" fill="white" class="sc-fqkvVR eDtKfR"></rect><svg height="40"><text x="50%" y="50%" dominant-baseline="middle" text-anchor="middle" font-weight="bold" pointer-events="none">LandingPage</text></svg><svg x="0" y="40.5" width="229" height="30" class="+ page: Page" fill="#ffffff"><g><rect width="100%" height="100%" stroke="none" fill="white" class="sc-fqkvVR eDtKfR"></rect><text x="10" y="50%" dominant-baseline="middle" text-anchor="start" font-weight="normal" pointer-events="none">+ page: Page</text></g></svg><svg x="0" y="70.5" width="229" height="30" class="+ languageLocator: Locator" fill="#ffffff"><g><rect width="100%" height="100%" stroke="none" fill="white" class="sc-fqkvVR eDtKfR"></rect><text x="10" y="50%" dominant-baseline="middle" text-anchor="start" font-weight="normal" pointer-events="none">+ languageLocator: Locator</text></g></svg><svg x="0" y="100.5" width="229" height="30" class="+ login(String, String)" fill="#ffffff"><g><rect width="100%" height="100%" stroke="none" fill="white" class="sc-fqkvVR eDtKfR"></rect><text x="10" y="50%" dominant-baseline="middle" text-anchor="start" font-weight="normal" pointer-events="none">+ login(String, String)</text></g></svg><svg x="0" y="130.5" width="229" height="30" class="+ logout()" fill="#ffffff"><g><rect width="100%" height="100%" stroke="none" fill="white" class="sc-fqkvVR eDtKfR"></rect><text x="10" y="50%" dominant-baseline="middle" text-anchor="start" font-weight="normal" pointer-events="none">+ logout()</text></g></svg><svg x="0" y="160.5" width="229" height="30" class="+ launchLanguage(String)" fill="#ffffff"><g><rect width="100%" height="100%" stroke="none" fill="white" class="sc-fqkvVR eDtKfR"></rect><text x="10" y="50%" dominant-baseline="middle" text-anchor="start" font-weight="normal" pointer-events="none">+ launchLanguage(String)</text></g></svg><rect width="100%" height="100%" stroke="black" fill="none" class="sc-fqkvVR jAaomD"></rect><path d="M 0 40 H 230" stroke="black" fill="white" class="sc-gEvEer fkqzOi"></path><path d="M 0 100 H 230" stroke="black" fill="white" class="sc-gEvEer fkqzOi"></path></g></svg><svg x="1165" y="215" width="250" height="250" class="ArtemisPage" fill="#ffffff"><g><rect width="100%" height="40" stroke="none" fill="white" class="sc-fqkvVR eDtKfR"></rect><rect y="40" width="100%" height="210" stroke="none" fill="white" class="sc-fqkvVR eDtKfR"></rect><svg height="40"><text x="50%" y="50%" dominant-baseline="middle" text-anchor="middle" font-weight="bold" pointer-events="none">ArtemisPage</text></svg><svg x="0" y="40.5" width="249" height="30" class="+ page: Page" fill="#ffffff"><g><rect width="100%" height="100%" stroke="none" fill="white" class="sc-fqkvVR eDtKfR"></rect><text x="10" y="50%" dominant-baseline="middle" text-anchor="start" font-weight="normal" pointer-events="none">+ page: Page</text></g></svg><svg x="0" y="70.5" width="249" height="30" class="+ baseURL: String" fill="#ffffff"><g><rect width="100%" height="100%" stroke="none" fill="white" class="sc-fqkvVR eDtKfR"></rect><text x="10" y="50%" dominant-baseline="middle" text-anchor="start" font-weight="normal" pointer-events="none">+ baseURL: String</text></g></svg><svg x="0" y="100.5" width="249" height="30" class="+ login(String, String)" fill="#ffffff"><g><rect width="100%" height="100%" stroke="none" fill="white" class="sc-fqkvVR eDtKfR"></rect><text x="10" y="50%" dominant-baseline="middle" text-anchor="start" font-weight="normal" pointer-events="none">+ login(String, String)</text></g></svg><svg x="0" y="130.5" width="249" height="30" class="+ logout()" fill="#ffffff"><g><rect width="100%" height="100%" stroke="none" fill="white" class="sc-fqkvVR eDtKfR"></rect><text x="10" y="50%" dominant-baseline="middle" text-anchor="start" font-weight="normal" pointer-events="none">+ logout()</text></g></svg><svg x="0" y="160.5" width="249" height="30" class="+ createSimpleCourse()" fill="#ffffff"><g><rect width="100%" height="100%" stroke="none" fill="white" class="sc-fqkvVR eDtKfR"></rect><text x="10" y="50%" dominant-baseline="middle" text-anchor="start" font-weight="normal" pointer-events="none">+ createSimpleCourse()</text></g></svg><svg x="0" y="190.5" width="249" height="30" class="+ deleteCourse()" fill="#ffffff"><g><rect width="100%" height="100%" stroke="none" fill="white" class="sc-fqkvVR eDtKfR"></rect><text x="10" y="50%" dominant-baseline="middle" text-anchor="start" font-weight="normal" pointer-events="none">+ deleteCourse()</text></g></svg><svg x="0" y="220.5" width="249" height="30" class="+ createTheiaEnabledExercise()" fill="#ffffff"><g><rect width="100%" height="100%" stroke="none" fill="white" class="sc-fqkvVR eDtKfR"></rect><text x="10" y="50%" dominant-baseline="middle" text-anchor="start" font-weight="normal" pointer-events="none">+ createTheiaEnabledExercise()</text></g></svg><rect width="100%" height="100%" stroke="black" fill="none" class="sc-fqkvVR jAaomD"></rect><path d="M 0 40 H 250" stroke="black" fill="white" class="sc-gEvEer fkqzOi"></path><path d="M 0 100 H 250" stroke="black" fill="white" class="sc-gEvEer fkqzOi"></path></g></svg><svg x="1165" y="515" width="330" height="250" class="ExercisePage" fill="#ffffff"><g><rect width="100%" height="40" stroke="none" fill="white" class="sc-fqkvVR eDtKfR"></rect><rect y="40" width="100%" height="210" stroke="none" fill="white" class="sc-fqkvVR eDtKfR"></rect><svg height="40"><text x="50%" y="50%" dominant-baseline="middle" text-anchor="middle" font-weight="bold" pointer-events="none">ExercisePage</text></svg><svg x="0" y="40.5" width="329" height="30" class="+ page: Page" fill="#ffffff"><g><rect width="100%" height="100%" stroke="none" fill="white" class="sc-fqkvVR eDtKfR"></rect><text x="10" y="50%" dominant-baseline="middle" text-anchor="start" font-weight="normal" pointer-events="none">+ page: Page</text></g></svg><svg x="0" y="70.5" width="329" height="30" class="+ id: number" fill="#ffffff"><g><rect width="100%" height="100%" stroke="none" fill="white" class="sc-fqkvVR eDtKfR"></rect><text x="10" y="50%" dominant-baseline="middle" text-anchor="start" font-weight="normal" pointer-events="none">+ id: number</text></g></svg><svg x="0" y="100.5" width="329" height="30" class="+ checkResultScore(number)" fill="#ffffff"><g><rect width="100%" height="100%" stroke="none" fill="white" class="sc-fqkvVR eDtKfR"></rect><text x="10" y="50%" dominant-baseline="middle" text-anchor="start" font-weight="normal" pointer-events="none">+ checkResultScore(number)</text></g></svg><svg x="0" y="130.5" width="329" height="30" class="+ logout()" fill="#ffffff"><g><rect width="100%" height="100%" stroke="none" fill="white" class="sc-fqkvVR eDtKfR"></rect><text x="10" y="50%" dominant-baseline="middle" text-anchor="start" font-weight="normal" pointer-events="none">+ logout()</text></g></svg><svg x="0" y="160.5" width="329" height="30" class="+ startParticipation()" fill="#ffffff"><g><rect width="100%" height="100%" stroke="none" fill="white" class="sc-fqkvVR eDtKfR"></rect><text x="10" y="50%" dominant-baseline="middle" text-anchor="start" font-weight="normal" pointer-events="none">+ startParticipation()</text></g></svg><svg x="0" y="190.5" width="329" height="30" class="+ openInOnlineIDE()" fill="#ffffff"><g><rect width="100%" height="100%" stroke="none" fill="white" class="sc-fqkvVR eDtKfR"></rect><text x="10" y="50%" dominant-baseline="middle" text-anchor="start" font-weight="normal" pointer-events="none">+ openInOnlineIDE()</text></g></svg><svg x="0" y="220.5" width="329" height="30" class="+ getCloneUrl()" fill="#ffffff"><g><rect width="100%" height="100%" stroke="none" fill="white" class="sc-fqkvVR eDtKfR"></rect><text x="10" y="50%" dominant-baseline="middle" text-anchor="start" font-weight="normal" pointer-events="none">+ getCloneUrl()</text></g></svg><rect width="100%" height="100%" stroke="black" fill="none" class="sc-fqkvVR jAaomD"></rect><path d="M 0 40 H 330" stroke="black" fill="white" class="sc-gEvEer fkqzOi"></path><path d="M 0 100 H 330" stroke="black" fill="white" class="sc-gEvEer fkqzOi"></path></g></svg><svg x="265" y="215" width="160" height="40" class="cApp" fill="#ffffff"><g><rect width="100%" height="40" stroke="none" fill="white" class="sc-fqkvVR eDtKfR"></rect><rect y="40" width="100%" height="0" stroke="none" fill="white" class="sc-fqkvVR eDtKfR"></rect><svg height="40"><text x="50%" y="50%" dominant-baseline="middle" text-anchor="middle" font-weight="bold" pointer-events="none">cApp</text></svg><rect width="100%" height="100%" stroke="black" fill="none" class="sc-fqkvVR jAaomD"></rect></g></svg><svg x="445" y="215" width="160" height="40" class="javaApp" fill="#ffffff"><g><rect width="100%" height="40" stroke="none" fill="white" class="sc-fqkvVR eDtKfR"></rect><rect y="40" width="100%" height="0" stroke="none" fill="white" class="sc-fqkvVR eDtKfR"></rect><svg height="40"><text x="50%" y="50%" dominant-baseline="middle" text-anchor="middle" font-weight="bold" pointer-events="none">javaApp</text></svg><rect width="100%" height="100%" stroke="black" fill="none" class="sc-fqkvVR jAaomD"></rect></g></svg><svg x="805" y="215" width="160" height="40" class="ocamlApp" fill="#ffffff"><g><rect width="100%" height="40" stroke="none" fill="white" class="sc-fqkvVR eDtKfR"></rect><rect y="40" width="100%" height="0" stroke="none" fill="white" class="sc-fqkvVR eDtKfR"></rect><svg height="40"><text x="50%" y="50%" dominant-baseline="middle" text-anchor="middle" font-weight="bold" pointer-events="none">ocamlApp</text></svg><rect width="100%" height="100%" stroke="black" fill="none" class="sc-fqkvVR jAaomD"></rect></g></svg><svg x="625" y="215" width="160" height="40" class="pythonApp" fill="#ffffff"><g><rect width="100%" height="40" stroke="none" fill="white" class="sc-fqkvVR eDtKfR"></rect><rect y="40" width="100%" height="0" stroke="none" fill="white" class="sc-fqkvVR eDtKfR"></rect><svg height="40"><text x="50%" y="50%" dominant-baseline="middle" text-anchor="middle" font-weight="bold" pointer-events="none">pythonApp</text></svg><rect width="100%" height="100%" stroke="black" fill="none" class="sc-fqkvVR jAaomD"></rect></g></svg><svg x="985" y="215" width="160" height="40" class="rustApp" fill="#ffffff"><g><rect width="100%" height="40" stroke="none" fill="white" class="sc-fqkvVR eDtKfR"></rect><rect y="40" width="100%" height="0" stroke="none" fill="white" class="sc-fqkvVR eDtKfR"></rect><svg height="40"><text x="50%" y="50%" dominant-baseline="middle" text-anchor="middle" font-weight="bold" pointer-events="none">rustApp</text></svg><rect width="100%" height="100%" stroke="black" fill="none" class="sc-fqkvVR jAaomD"></rect></g></svg><svg x="565" y="345" width="280" height="220" class="IDEPage" fill="#ffffff"><g><rect width="100%" height="40" stroke="none" fill="white" class="sc-fqkvVR eDtKfR"></rect><rect y="40" width="100%" height="180" stroke="none" fill="white" class="sc-fqkvVR eDtKfR"></rect><svg height="40"><text x="50%" y="50%" dominant-baseline="middle" text-anchor="middle" font-weight="bold" pointer-events="none">IDEPage</text></svg><svg x="0" y="40.5" width="279" height="30" class="+ page: Page" fill="#ffffff"><g><rect width="100%" height="100%" stroke="none" fill="white" class="sc-fqkvVR eDtKfR"></rect><text x="10" y="50%" dominant-baseline="middle" text-anchor="start" font-weight="normal" pointer-events="none">+ page: Page</text></g></svg><svg x="0" y="70.5" width="279" height="30" class="+ baseURL: String" fill="#ffffff"><g><rect width="100%" height="100%" stroke="none" fill="white" class="sc-fqkvVR eDtKfR"></rect><text x="10" y="50%" dominant-baseline="middle" text-anchor="start" font-weight="normal" pointer-events="none">+ baseURL: String</text></g></svg><svg x="0" y="100.5" width="279" height="30" class="+ createNewFile(String)" fill="#ffffff"><g><rect width="100%" height="100%" stroke="none" fill="white" class="sc-fqkvVR eDtKfR"></rect><text x="10" y="50%" dominant-baseline="middle" text-anchor="start" font-weight="normal" pointer-events="none">+ createNewFile(String)</text></g></svg><svg x="0" y="130.5" width="279" height="30" class="+ createNewFolder(String)" fill="#ffffff"><g><rect width="100%" height="100%" stroke="none" fill="white" class="sc-fqkvVR eDtKfR"></rect><text x="10" y="50%" dominant-baseline="middle" text-anchor="start" font-weight="normal" pointer-events="none">+ createNewFolder(String)</text></g></svg><svg x="0" y="160.5" width="279" height="30" class="+ createAndOpenWorkspace(String)" fill="#ffffff"><g><rect width="100%" height="100%" stroke="none" fill="white" class="sc-fqkvVR eDtKfR"></rect><text x="10" y="50%" dominant-baseline="middle" text-anchor="start" font-weight="normal" pointer-events="none">+ createAndOpenWorkspace(String)</text></g></svg><svg x="0" y="190.5" width="279" height="30" class="+ directAuthenticateScorpio()" fill="#ffffff"><g><rect width="100%" height="100%" stroke="none" fill="white" class="sc-fqkvVR eDtKfR"></rect><text x="10" y="50%" dominant-baseline="middle" text-anchor="start" font-weight="normal" pointer-events="none">+ directAuthenticateScorpio()</text></g></svg><rect width="100%" height="100%" stroke="black" fill="none" class="sc-fqkvVR jAaomD"></rect><path d="M 0 40 H 280" stroke="black" fill="white" class="sc-gEvEer fkqzOi"></path><path d="M 0 100 H 280" stroke="black" fill="white" class="sc-gEvEer fkqzOi"></path></g></svg><svg x="155" y="605" width="730" height="390" class="Eclipse POM" fill="#ffffff"><g><path d="M 0 10 V 0 H 40 V 10" stroke="black" fill="white" class="sc-gEvEer fkqzOi"></path><rect y="10" width="100%" height="380" stroke="black" fill="white" class="sc-fqkvVR uHYUy"></rect><text x="50%" y="20" dy="10" text-anchor="middle" font-weight="bold" pointer-events="none">Eclipse POM</text></g></svg><svg x="235" y="715" width="160" height="40" class="TheiaStatusBar" fill="#ffffff"><g><rect width="100%" height="40" stroke="none" fill="white" class="sc-fqkvVR eDtKfR"></rect><rect y="40" width="100%" height="0" stroke="none" fill="white" class="sc-fqkvVR eDtKfR"></rect><svg height="40"><text x="50%" y="50%" dominant-baseline="middle" text-anchor="middle" font-weight="bold" pointer-events="none">TheiaStatusBar</text></svg><rect width="100%" height="100%" stroke="black" fill="none" class="sc-fqkvVR jAaomD"></rect></g></svg><svg x="235" y="775" width="240" height="40" class="TheiaQuickCommandPalette" fill="#ffffff"><g><rect width="100%" height="40" stroke="none" fill="white" class="sc-fqkvVR eDtKfR"></rect><rect y="40" width="100%" height="0" stroke="none" fill="white" class="sc-fqkvVR eDtKfR"></rect><svg height="40"><text x="50%" y="50%" dominant-baseline="middle" text-anchor="middle" font-weight="bold" pointer-events="none">TheiaQuickCommandPalette</text></svg><rect width="100%" height="100%" stroke="black" fill="none" class="sc-fqkvVR jAaomD"></rect></g></svg><svg x="235" y="835" width="160" height="40" class="TheiaMenuBar" fill="#ffffff"><g><rect width="100%" height="40" stroke="none" fill="white" class="sc-fqkvVR eDtKfR"></rect><rect y="40" width="100%" height="0" stroke="none" fill="white" class="sc-fqkvVR eDtKfR"></rect><svg height="40"><text x="50%" y="50%" dominant-baseline="middle" text-anchor="middle" font-weight="bold" pointer-events="none">TheiaMenuBar</text></svg><rect width="100%" height="100%" stroke="black" fill="none" class="sc-fqkvVR jAaomD"></rect></g></svg><svg x="555" y="665" width="280" height="280" class="TheiaApp" fill="#ffffff"><g><rect width="100%" height="40" stroke="none" fill="white" class="sc-fqkvVR eDtKfR"></rect><rect y="40" width="100%" height="240" stroke="none" fill="white" class="sc-fqkvVR eDtKfR"></rect><svg height="40"><text x="50%" y="50%" dominant-baseline="middle" text-anchor="middle" font-weight="bold" pointer-events="none">TheiaApp</text></svg><svg x="0" y="40.5" width="279" height="30" class="+ page: Page" fill="#ffffff"><g><rect width="100%" height="100%" stroke="none" fill="white" class="sc-fqkvVR eDtKfR"></rect><text x="10" y="50%" dominant-baseline="middle" text-anchor="start" font-weight="normal" pointer-events="none">+ page: Page</text></g></svg><svg x="0" y="70.5" width="279" height="30" class="+ workspace: TheiaWorkspace" fill="#ffffff"><g><rect width="100%" height="100%" stroke="none" fill="white" class="sc-fqkvVR eDtKfR"></rect><text x="10" y="50%" dominant-baseline="middle" text-anchor="start" font-weight="normal" pointer-events="none">+ workspace: TheiaWorkspace</text></g></svg><svg x="0" y="100.5" width="279" height="30" class="+ isElectron: boolean" fill="#ffffff"><g><rect width="100%" height="100%" stroke="none" fill="white" class="sc-fqkvVR eDtKfR"></rect><text x="10" y="50%" dominant-baseline="middle" text-anchor="start" font-weight="normal" pointer-events="none">+ isElectron: boolean</text></g></svg><svg x="0" y="130.5" width="279" height="30" class="+ waitForShellAndInitialized()" fill="#ffffff"><g><rect width="100%" height="100%" stroke="none" fill="white" class="sc-fqkvVR eDtKfR"></rect><text x="10" y="50%" dominant-baseline="middle" text-anchor="start" font-weight="normal" pointer-events="none">+ waitForShellAndInitialized()</text></g></svg><svg x="0" y="160.5" width="279" height="30" class="+ openPreferences()" fill="#ffffff"><g><rect width="100%" height="100%" stroke="none" fill="white" class="sc-fqkvVR eDtKfR"></rect><text x="10" y="50%" dominant-baseline="middle" text-anchor="start" font-weight="normal" pointer-events="none">+ openPreferences()</text></g></svg><svg x="0" y="190.5" width="279" height="30" class="+ openView()" fill="#ffffff"><g><rect width="100%" height="100%" stroke="none" fill="white" class="sc-fqkvVR eDtKfR"></rect><text x="10" y="50%" dominant-baseline="middle" text-anchor="start" font-weight="normal" pointer-events="none">+ openView()</text></g></svg><svg x="0" y="220.5" width="279" height="30" class="+ openEditor()" fill="#ffffff"><g><rect width="100%" height="100%" stroke="none" fill="white" class="sc-fqkvVR eDtKfR"></rect><text x="10" y="50%" dominant-baseline="middle" text-anchor="start" font-weight="normal" pointer-events="none">+ openEditor()</text></g></svg><svg x="0" y="250.5" width="279" height="30" class="+ openTerminal()" fill="#ffffff"><g><rect width="100%" height="100%" stroke="none" fill="white" class="sc-fqkvVR eDtKfR"></rect><text x="10" y="50%" dominant-baseline="middle" text-anchor="start" font-weight="normal" pointer-events="none">+ openTerminal()</text></g></svg><rect width="100%" height="100%" stroke="black" fill="none" class="sc-fqkvVR jAaomD"></rect><path d="M 0 40 H 280" stroke="black" fill="white" class="sc-gEvEer fkqzOi"></path><path d="M 0 130 H 280" stroke="black" fill="white" class="sc-gEvEer fkqzOi"></path></g></svg><svg x="235" y="895" width="160" height="40" class="..." fill="#ffffff"><g><rect width="100%" height="40" stroke="none" fill="white" class="sc-fqkvVR eDtKfR"></rect><rect y="40" width="100%" height="0" stroke="none" fill="white" class="sc-fqkvVR eDtKfR"></rect><svg height="40"><text x="50%" y="50%" dominant-baseline="middle" text-anchor="middle" font-weight="bold" pointer-events="none">...</text></svg><rect width="100%" height="100%" stroke="black" fill="none" class="sc-fqkvVR jAaomD"></rect></g></svg><svg x="125" y="55" width="585" height="171" class="" fill="#ffffff"><g><polyline points="5 160,5 80,580 80,580 0" stroke-width="1" marker-end="url(#marker-e06e1619-6b4c-4a8a-9c24-af380ea9efda)" stroke="black" fill="none" class="sc-aXZVg eMElBf"></polyline><text x="5" y="152" dx="5" text-anchor="start" pointer-events="none">1</text><text x="580" y="8" dx="5" dy="10" text-anchor="start" pointer-events="none"></text><text x="5" y="152" dx="-5" text-anchor="end" pointer-events="none"></text><text x="580" y="8" dx="-5" dy="10" text-anchor="end" pointer-events="none"></text></g></svg><svg x="1285" y="465" width="10" height="50" class="" fill="#ffffff"><g><polyline points="5 50,5 0" stroke-width="1" marker-end="url(#marker-b6b6edb0-0538-4173-bedb-64d44bd779dd)" stroke="black" fill="none" class="sc-aXZVg eMElBf"></polyline><text x="5" y="42" dx="5" text-anchor="start" pointer-events="none"></text><text x="5" y="8" dx="5" dy="10" text-anchor="start" pointer-events="none"></text><text x="5" y="42" dx="-5" text-anchor="end" pointer-events="none"></text><text x="5" y="8" dx="-5" dy="10" text-anchor="end" pointer-events="none"></text></g></svg><svg x="700" y="55" width="605.8999996185303" height="171" class="" fill="#ffffff"><g><polyline points="590 160,590 80,5 80,5 0" stroke-width="1" marker-end="url(#marker-c6acdae2-a0d5-4fd2-9e1b-732258569913)" stroke="black" fill="none" class="sc-aXZVg eMElBf"></polyline><text x="590" y="152" dx="5" text-anchor="start" pointer-events="none">1</text><text x="5" y="8" dx="5" dy="10" text-anchor="start" pointer-events="none"></text><text x="590" y="152" dx="-5" text-anchor="end" pointer-events="none"></text><text x="5" y="8" dx="-5" dy="10" text-anchor="end" pointer-events="none"></text></g></svg><svg x="340" y="55" width="370" height="171" class="" fill="#ffffff"><g><polyline points="5 160,5 80,365 80,365 0" stroke-width="1" marker-end="url(#marker-4a670977-0279-4638-b8c7-0d0c25d81d02)" stroke="black" fill="none" class="sc-aXZVg eMElBf"></polyline><text x="5" y="152" dx="5" text-anchor="start" pointer-events="none">1</text><text x="365" y="8" dx="5" dy="10" text-anchor="start" pointer-events="none"></text><text x="5" y="152" dx="-5" text-anchor="end" pointer-events="none"></text><text x="365" y="8" dx="-5" dy="10" text-anchor="end" pointer-events="none"></text></g></svg><svg x="520" y="55" width="190" height="171" class="" fill="#ffffff"><g><polyline points="5 160,5 80,185 80,185 0" stroke-width="1" marker-end="url(#marker-e6b64410-e68b-4bb0-b8f4-d1090986d8f2)" stroke="black" fill="none" class="sc-aXZVg eMElBf"></polyline><text x="5" y="152" dx="5" text-anchor="start" pointer-events="none">1</text><text x="185" y="8" dx="5" dy="10" text-anchor="start" pointer-events="none"></text><text x="5" y="152" dx="-5" text-anchor="end" pointer-events="none"></text><text x="185" y="8" dx="-5" dy="10" text-anchor="end" pointer-events="none"></text></g></svg><svg x="700" y="55" width="20.899999618530273" height="171" class="" fill="#ffffff"><g><polyline points="5 160,5 0" stroke-width="1" marker-end="url(#marker-4fcc670e-3515-4f2e-8e44-58b8b5f79b73)" stroke="black" fill="none" class="sc-aXZVg eMElBf"></polyline><text x="5" y="152" dx="5" text-anchor="start" pointer-events="none">1</text><text x="5" y="8" dx="5" dy="10" text-anchor="start" pointer-events="none"></text><text x="5" y="152" dx="-5" text-anchor="end" pointer-events="none"></text><text x="5" y="8" dx="-5" dy="10" text-anchor="end" pointer-events="none"></text></g></svg><svg x="700" y="55" width="200.89999961853027" height="171" class="" fill="#ffffff"><g><polyline points="185 160,185 80,5 80,5 0" stroke-width="1" marker-end="url(#marker-5f47b795-74ca-404c-a24e-daee576a425e)" stroke="black" fill="none" class="sc-aXZVg eMElBf"></polyline><text x="185" y="152" dx="5" text-anchor="start" pointer-events="none">1</text><text x="5" y="8" dx="5" dy="10" text-anchor="start" pointer-events="none"></text><text x="185" y="152" dx="-5" text-anchor="end" pointer-events="none"></text><text x="5" y="8" dx="-5" dy="10" text-anchor="end" pointer-events="none"></text></g></svg><svg x="700" y="55" width="380.8999996185303" height="171" class="" fill="#ffffff"><g><polyline points="365 160,365 80,5 80,5 0" stroke-width="1" marker-end="url(#marker-129be989-83b0-4d57-b0d5-afe162b1910b)" stroke="black" fill="none" class="sc-aXZVg eMElBf"></polyline><text x="365" y="152" dx="5" text-anchor="start" pointer-events="none">1</text><text x="5" y="8" dx="5" dy="10" text-anchor="start" pointer-events="none"></text><text x="365" y="152" dx="-5" text-anchor="end" pointer-events="none"></text><text x="5" y="8" dx="-5" dy="10" text-anchor="end" pointer-events="none"></text></g></svg><svg x="340" y="255" width="370" height="90" class="" fill="#ffffff"><g><marker id="marker-0f7d5fe0-f924-4354-a7d6-51b8c132e61e" viewBox="0 0 30 30" markerWidth="22" markerHeight="30" refX="30" refY="15" orient="auto" markerUnits="strokeWidth"><path d="M0,1 L0,29 L30,15 z" stroke="black" fill="white" class="sc-gEvEer fkqzOi"></path></marker><polyline points="5 0,5 45,365 45,365 90" stroke-width="1" marker-end="url(#marker-0f7d5fe0-f924-4354-a7d6-51b8c132e61e)" stroke="black" fill="none" class="sc-aXZVg eMElBf"></polyline><text x="5" y="8" dx="5" dy="10" text-anchor="start" pointer-events="none"></text><text x="365" y="59" dx="5" text-anchor="start" pointer-events="none"></text><text x="5" y="8" dx="-5" dy="10" text-anchor="end" pointer-events="none"></text><text x="365" y="59" dx="-5" text-anchor="end" pointer-events="none"></text></g></svg><svg x="580" y="255" width="10" height="90" class="" fill="#ffffff"><g><marker id="marker-9b832cbe-2eed-48e5-ae2e-87dd3df4c0f2" viewBox="0 0 30 30" markerWidth="22" markerHeight="30" refX="30" refY="15" orient="auto" markerUnits="strokeWidth"><path d="M0,1 L0,29 L30,15 z" stroke="black" fill="white" class="sc-gEvEer fkqzOi"></path></marker><polyline points="5 0,5 90" stroke-width="1" marker-end="url(#marker-9b832cbe-2eed-48e5-ae2e-87dd3df4c0f2)" stroke="black" fill="none" class="sc-aXZVg eMElBf"></polyline><text x="5" y="8" dx="5" dy="10" text-anchor="start" pointer-events="none"></text><text x="5" y="59" dx="5" text-anchor="start" pointer-events="none"></text><text x="5" y="8" dx="-5" dy="10" text-anchor="end" pointer-events="none"></text><text x="5" y="59" dx="-5" text-anchor="end" pointer-events="none"></text></g></svg><svg x="700" y="255" width="10" height="90" class="" fill="#ffffff"><g><marker id="marker-376a19ad-0ba8-485d-bb7b-ee049150a0b1" viewBox="0 0 30 30" markerWidth="22" markerHeight="30" refX="30" refY="15" orient="auto" markerUnits="strokeWidth"><path d="M0,1 L0,29 L30,15 z" stroke="black" fill="white" class="sc-gEvEer fkqzOi"></path></marker><polyline points="5 0,5 90" stroke-width="1" marker-end="url(#marker-376a19ad-0ba8-485d-bb7b-ee049150a0b1)" stroke="black" fill="none" class="sc-aXZVg eMElBf"></polyline><text x="5" y="8" dx="5" dy="10" text-anchor="start" pointer-events="none"></text><text x="5" y="59" dx="5" text-anchor="start" pointer-events="none"></text><text x="5" y="8" dx="-5" dy="10" text-anchor="end" pointer-events="none"></text><text x="5" y="59" dx="-5" text-anchor="end" pointer-events="none"></text></g></svg><svg x="820" y="255" width="10" height="90" class="" fill="#ffffff"><g><marker id="marker-f5b036af-bb46-468c-8a6e-065623c62f35" viewBox="0 0 30 30" markerWidth="22" markerHeight="30" refX="30" refY="15" orient="auto" markerUnits="strokeWidth"><path d="M0,1 L0,29 L30,15 z" stroke="black" fill="white" class="sc-gEvEer fkqzOi"></path></marker><polyline points="5 0,5 90" stroke-width="1" marker-end="url(#marker-f5b036af-bb46-468c-8a6e-065623c62f35)" stroke="black" fill="none" class="sc-aXZVg eMElBf"></polyline><text x="5" y="8" dx="5" dy="10" text-anchor="start" pointer-events="none"></text><text x="5" y="59" dx="5" text-anchor="start" pointer-events="none"></text><text x="5" y="8" dx="-5" dy="10" text-anchor="end" pointer-events="none"></text><text x="5" y="59" dx="-5" text-anchor="end" pointer-events="none"></text></g></svg><svg x="700" y="255" width="370" height="90" class="" fill="#ffffff"><g><marker id="marker-f6a9687d-4e64-4af3-a85a-2582c1522886" viewBox="0 0 30 30" markerWidth="22" markerHeight="30" refX="30" refY="15" orient="auto" markerUnits="strokeWidth"><path d="M0,1 L0,29 L30,15 z" stroke="black" fill="white" class="sc-gEvEer fkqzOi"></path></marker><polyline points="365 0,365 45,5 45,5 90" stroke-width="1" marker-end="url(#marker-f6a9687d-4e64-4af3-a85a-2582c1522886)" stroke="black" fill="none" class="sc-aXZVg eMElBf"></polyline><text x="365" y="8" dx="5" dy="10" text-anchor="start" pointer-events="none"></text><text x="5" y="59" dx="5" text-anchor="start" pointer-events="none"></text><text x="365" y="8" dx="-5" dy="10" text-anchor="end" pointer-events="none"></text><text x="5" y="59" dx="-5" text-anchor="end" pointer-events="none"></text></g></svg><svg x="695" y="565" width="10" height="100" class="" fill="#ffffff"><g><polyline points="5 100,5 0" stroke-width="1" marker-end="url(#marker-3afcb508-52e3-40f6-a57d-c18375b90057)" stroke="black" fill="none" class="sc-aXZVg eMElBf"></polyline><text x="5" y="92" dx="5" text-anchor="start" pointer-events="none"></text><text x="5" y="8" dx="5" dy="10" text-anchor="start" pointer-events="none"></text><text x="5" y="92" dx="-5" text-anchor="end" pointer-events="none"></text><text x="5" y="8" dx="-5" dy="10" text-anchor="end" pointer-events="none"></text></g></svg><svg x="475" y="785" width="80" height="31" class="" fill="#ffffff"><g><polyline points="0 10,80 10" stroke-width="1" marker-end="url(#marker-01740185-7636-4cd9-ad9f-4a78f60dd575)" stroke="black" fill="none" class="sc-aXZVg eMElBf"></polyline><text x="8" y="10" dy="21" text-anchor="start" pointer-events="none"></text><text x="72" y="10" dy="21" text-anchor="end" pointer-events="none"></text><text x="8" y="10" dy="-10" text-anchor="start" pointer-events="none"></text><text x="72" y="10" dy="-10" text-anchor="end" pointer-events="none"></text></g></svg><svg x="395" y="725" width="160" height="31" class="" fill="#ffffff"><g><polyline points="0 10,160 10" stroke-width="1" marker-end="url(#marker-f7d17da3-ea25-4d85-a85e-dc454ed33eb4)" stroke="black" fill="none" class="sc-aXZVg eMElBf"></polyline><text x="8" y="10" dy="21" text-anchor="start" pointer-events="none"></text><text x="152" y="10" dy="21" text-anchor="end" pointer-events="none"></text><text x="8" y="10" dy="-10" text-anchor="start" pointer-events="none"></text><text x="152" y="10" dy="-10" text-anchor="end" pointer-events="none"></text></g></svg><svg x="395" y="845" width="160" height="31" class="" fill="#ffffff"><g><polyline points="0 10,160 10" stroke-width="1" marker-end="url(#marker-d8ab5581-0189-4bfa-9b87-80f0e14525be)" stroke="black" fill="none" class="sc-aXZVg eMElBf"></polyline><text x="8" y="10" dy="21" text-anchor="start" pointer-events="none"></text><text x="152" y="10" dy="21" text-anchor="end" pointer-events="none"></text><text x="8" y="10" dy="-10" text-anchor="start" pointer-events="none"></text><text x="152" y="10" dy="-10" text-anchor="end" pointer-events="none"></text></g></svg><svg x="395" y="905" width="160" height="31" class="" fill="#ffffff"><g><polyline points="0 10,160 10" stroke-width="1" marker-end="url(#marker-82b085c3-48b8-4dda-822a-daa402d692c5)" stroke="black" fill="none" class="sc-aXZVg eMElBf"></polyline><text x="8" y="10" dy="21" text-anchor="start" pointer-events="none"></text><text x="152" y="10" dy="21" text-anchor="end" pointer-events="none"></text><text x="8" y="10" dy="-10" text-anchor="start" pointer-events="none"></text><text x="152" y="10" dy="-10" text-anchor="end" pointer-events="none"></text></g></svg></svg>